HIERARCHY
ROOT Hips
{
    OFFSET 0.000000 0.000000 0.000000
    CHANNELS 6 Xposition Yposition Zposition Zrotation Xrotation Yrotation
    JOINT Spine
    {
        OFFSET -0.000000 0.083210 0.000000
        CHANNELS 3 Zrotation Xrotation Yrotation
        JOINT Spine1
        {
            OFFSET -0.000000 0.256334 0.000000
            CHANNELS 3 Zrotation Xrotation Yrotation
            JOINT Neck
            {
                OFFSET -0.000000 0.275576 0.002912
                CHANNELS 3 Zrotation Xrotation Yrotation
                JOINT Head
                {
                    OFFSET -0.000000 0.157287 0.020295
                    CHANNELS 3 Zrotation Xrotation Yrotation
                    End Site
                    {
                        OFFSET -0.000000 0.202951 0.000000
                    }
                }
            }
            JOINT LeftShoulder
            {
                OFFSET 0.041044 0.235234 -0.000041
                CHANNELS 3 Zrotation Xrotation Yrotation
                JOINT LeftArm
                {
                    OFFSET 0.117964 0.000000 0.000000
                    CHANNELS 3 Zrotation Xrotation Yrotation
                    JOINT LeftForeArm
                    {
                        OFFSET 0.291248 0.000000 0.000000
                        CHANNELS 3 Zrotation Xrotation Yrotation
                        JOINT LeftHand
                        {
                            OFFSET 0.245673 0.000000 0.000000
                            CHANNELS 3 Zrotation Xrotation Yrotation
                            End Site
                            {
                                OFFSET 0.152213 0.000000 0.000000
                            }
                        }
                    }
                }
            }
            JOINT RightShoulder
            {
                OFFSET -0.040052 0.235234 -0.000041
                CHANNELS 3 Zrotation Xrotation Yrotation
                JOINT RightArm
                {
                    OFFSET -0.117964 0.000000 0.000000
                    CHANNELS 3 Zrotation Xrotation Yrotation
                    JOINT RightForeArm
                    {
                        OFFSET -0.291248 0.000000 0.000000
                        CHANNELS 3 Zrotation Xrotation Yrotation
                        JOINT RightHand
                        {
                            OFFSET -0.245673 0.000000 0.000000
                            CHANNELS 3 Zrotation Xrotation Yrotation
                            End Site
                            {
                                OFFSET -0.152213 0.000000 0.000000
                            }
                        }
                    }
                }
            }
        }
    }
    JOINT LeftUpLeg
    {
        OFFSET 0.101475 0.000000 0.000000
        CHANNELS 3 Zrotation Xrotation Yrotation
        JOINT LeftLeg
        {
            OFFSET -0.000000 -0.446535 0.000000
            CHANNELS 3 Zrotation Xrotation Yrotation
            JOINT LeftFoot
            {
                OFFSET -0.000000 -0.400037 0.000000
                CHANNELS 3 Zrotation Xrotation Yrotation
                JOINT LeftToeBase
                {
                    OFFSET -0.000000 -0.065959 0.152213
                    CHANNELS 3 Zrotation Xrotation Yrotation
                    End Site
                    {
                        OFFSET -0.000000 0.000000 0.040590
                    }
                }
            }
        }
    }
    JOINT RightUpLeg
    {
        OFFSET -0.101475 0.000000 0.000000
        CHANNELS 3 Zrotation Xrotation Yrotation
        JOINT RightLeg
        {
            OFFSET -0.000000 -0.446535 0.000000
            CHANNELS 3 Zrotation Xrotation Yrotation
            JOINT RightFoot
            {
                OFFSET -0.000000 -0.400037 0.000000
                CHANNELS 3 Zrotation Xrotation Yrotation
                JOINT RightToeBase
                {
                    OFFSET -0.000000 -0.065959 0.152213
                    CHANNELS 3 Zrotation Xrotation Yrotation
                    End Site
                    {
                        OFFSET -0.000000 0.000000 0.040590
                    }
                }
            }
        }
    }
}
MOTION
Frames:    8
Frame Time:    0.008333
-0.367951    0.889486    0.151951    -1.292390    13.020935    7.452340    -0.690874    13.793248    -0.218555    -6.306506    4.783402    0.165141    6.947433    12.573549    -3.585520    1.006483    -5.017261    -2.096432    0.976324    5.748588    -12.323432    -65.829918    27.079653    -4.382425    54.410519    -35.794987    -51.290031    36.263359    -5.819707    11.179661    2.694386    12.907390    19.634239    52.307838    50.177795    16.192595    -35.428104    -33.436302    27.356497    2.616802    -25.610947    3.432698    3.763894    -0.576815    10.773159    -5.080826    24.905642    14.462071    -13.821061    -23.660080    -2.166797    0.014811    -8.437103    -1.217273    -20.737505    -43.293976    -9.005672    15.047423    33.116241    -15.686667    11.630160    -6.195117    -12.439837    0.151505    -14.704401    0.982914    
-0.368497    0.886504    0.162879    -1.346212    13.052580    7.295499    -0.608949    14.166886    -0.690844    -5.811474    4.643632    -0.017315    6.313318    12.153732    -3.116999    0.914782    -4.929591    -1.783291    0.852578    5.740322    -13.186040    -64.420601    28.451683    -5.960719    53.381104    -33.294678    -48.003704    34.439674    -5.942795    10.602103    2.587999    12.799911    20.230450    51.172668    50.219696    17.010998    -35.447708    -32.615520    27.807459    1.985023    -24.603104    3.083850    4.063632    0.046312    9.849689    -5.673780    25.020380    15.632991    -14.470302    -23.506615    -2.444651    0.005166    -9.398167    -1.404350    -20.223696    -43.933304    -8.353335    14.983109    31.788385    -16.554529    11.842328    -5.577373    -12.826381    0.111890    -14.699385    0.726123    
-0.369056    0.883585    0.173912    -1.343008    13.101929    7.066678    -0.591263    14.505333    -1.034153    -5.401730    4.541035    -0.153100    6.084827    11.733734    -2.761077    0.572271    -4.878484    -1.463410    0.845685    5.946412    -14.050871    -62.469467    29.731770    -8.080064    50.902725    -30.638744    -45.370541    34.443264    -5.968899    10.060166    2.697069    12.701444    20.845922    49.987679    50.197590    17.669134    -35.355801    -31.943712    28.249018    1.297423    -23.783253    2.858191    4.339760    0.606468    8.680818    -6.436681    25.201786    17.216106    -15.307352    -23.074308    -2.803193    -0.012966    -10.757293    -1.549301    -19.640192    -44.643101    -7.646912    14.816015    30.601486    -17.282345    11.799340    -4.443524    -13.259157    0.070624    -14.470947    0.464390    
-0.369737    0.880846    0.185665    -1.319987    13.038167    6.815819    -0.650771    14.875049    -1.288768    -4.847081    4.525959    -0.263844    5.874990    11.333570    -2.439964    0.222565    -4.866180    -1.171467    0.838268    6.158155    -14.845401    -60.180042    30.748396    -10.520017    47.177437    -27.963976    -43.252392    34.117451    -6.263338    9.199218    2.719386    12.648264    21.433147    48.748672    50.094063    18.405327    -35.275753    -31.219864    28.637434    1.001717    -22.909962    2.736901    4.669237    1.188892    7.842056    -7.095699    25.646011    18.350193    -16.070166    -22.548027    -3.025964    -0.044342    -12.368178    -1.952023    -18.836121    -45.226959    -6.896728    14.560918    29.548405    -17.956854    10.114476    -2.514579    -13.358996    0.037047    -13.231344    0.262416    
-0.370416    0.878068    0.197514    -1.308784    12.986401    6.655242    -0.704238    15.237060    -1.519977    -4.171196    4.499053    -0.371494    5.673613    10.919914    -2.177305    -0.163543    -4.798767    -0.933891    0.721948    6.352851    -15.563818    -57.526115    31.940424    -13.257686    43.368515    -25.174492    -40.549393    32.438004    -6.752830    7.900193    2.736590    12.792992    21.924246    47.215595    49.825531    19.347389    -35.051876    -30.551954    29.113518    0.397761    -22.114658    2.453457    5.064350    1.547701    7.015404    -7.790133    26.443459    19.673174    -16.906868    -21.652357    -3.529524    -0.089181    -14.664849    -2.059106    -18.044586    -45.804401    -6.444918    14.192564    28.846012    -18.306175    8.134190    -0.287691    -12.997902    -0.051809    -11.509150    -0.410970    
-0.371221    0.875284    0.209727    -1.334155    12.890950    6.555849    -0.684578    15.597556    -1.718984    -3.514776    4.484144    -0.463951    5.607121    10.586181    -1.979021    -0.595084    -4.786761    -0.722770    0.541725    6.501125    -16.162355    -54.470985    33.008064    -16.248995    39.177586    -22.159967    -37.749226    30.232277    -7.046190    6.133513    2.816240    12.695088    22.400129    46.053265    49.565296    19.933344    -34.759491    -29.772869    29.516340    0.047495    -21.236338    2.245288    5.586058    1.671891    6.511669    -8.411566    27.826561    20.303513    -17.504852    -20.711689    -3.683108    -0.145860    -17.300920    -2.171442    -17.161270    -46.369980    -6.272611    13.686762    28.782963    -18.201910    5.863956    1.670166    -12.444802    -0.149113    -8.744637    -1.463605    
-0.372029    0.872432    0.222208    -1.415885    12.771396    6.585376    -0.530801    15.913551    -1.982095    -2.879157    4.505901    -0.569460    5.566671    10.329987    -1.818744    -0.969926    -4.817211    -0.546203    0.265733    6.525943    -16.657608    -51.129593    34.262794    -19.464247    35.319397    -19.350632    -34.228081    25.027048    -7.638938    3.593657    2.864737    12.720617    22.854023    44.716579    49.203339    20.741589    -34.374245    -29.002396    29.813837    -0.642224    -20.433689    2.060332    6.231928    1.503257    6.268727    -8.897796    29.797245    20.369804    -18.002131    -19.619375    -3.593095    -0.227257    -20.393915    -2.379340    -16.324295    -46.979034    -6.701670    12.963161    29.784069    -16.564669    3.574029    2.944462    -12.476791    -0.160508    -6.367084    -1.978454    
-0.372775    0.869508    0.235286    -1.457415    12.556396    6.685935    -0.287710    16.243486    -2.265215    -2.442741    4.558865    -0.668658    5.773561    10.193258    -1.742530    -1.360231    -4.926541    -0.395081    0.012535    6.434753    -17.066933    -47.806862    34.946968    -22.421837    30.909882    -16.331553    -31.324366    19.685984    -7.581206    0.303914    3.086488    12.748950    23.311014    43.420898    48.750481    21.426630    -33.852291    -27.963627    30.073574    -1.663283    -19.400337    1.820358    6.896592    1.180547    6.372989    -9.144220    32.265125    20.313313    -18.440411    -18.042629    -3.815031    -0.325251    -24.207502    -2.482190    -15.605165    -47.602238    -7.336703    12.087566    32.185177    -13.366739    1.300424    3.499849    -13.754734    -0.089438    -2.828319    -1.779008    
